<?xml version="1.0" encoding="UTF-8"?>
<svg id="Layer_1" data-name="Layer 1" xmlns="http://www.w3.org/2000/svg" viewBox="0 0 775.27 789.54">
  <defs>
    <style>
      .cls-1 {
        fill: #0e3c38;
      }
    </style>
  </defs>
  <path class="cls-1" d="M497.54,430.9l-30.7,143.74c-1.53,8.28-2.76,13.03-4.29,19.77-1.58-6.74-2.76-10.68-4.75-19.77l-24.72-107.78c58.28-17.62,95.11-68.96,95.11-130.36,0-75.35-56.65-135.98-140.73-135.98s-140.37,60.63-140.37,135.98c0,61.45,36.63,112.84,95.01,130.41l-25.03,107.73c-1.99,9.09-3.17,13.03-4.7,19.77-1.23-6.74-2.76-12.67-3.93-19.77l-27.53-143.74h-76.67l64.47,256.53h237.89l64.47-256.53h-73.51ZM327.18,336.5c0-38.26,27.07-65.95,60.28-65.95,35.55,0,60.63,27.69,60.63,65.95s-25.08,66.81-60.63,66.81-60.28-27.69-60.28-66.81ZM373.15,582.05l8.38-33.56c2.35-9.09,3.93-17.01,5.93-25.75,1.94,8.73,3.52,16.65,5.87,25.75l8.38,33.56h-28.55Z"/>
  <g>
    <path class="cls-1" d="M283.91,154.16c-2.78,2.89-5.55,5.78-8.31,8.67,2.77.03,5.55.11,8.34.23.67,0,1.3-.2,1.89-.57.45-.32.87-.77,1.28-1.36.41-.58.65-1.49.72-2.71.3.85.38,1.78.23,2.79-.15.93-.5,1.95-1.05,3.06-.55,1.11-1.57,2.33-3.06,3.65.03,8.66.06,17.33.09,25.99,0,1.58.57,2.67,1.69,3.28-1.41.35-2.82,1.03-4.23,2.03-1.41,1-2.76,2.16-4.05,3.47-1.29,1.32-2.51,2.7-3.65,4.16-1.14,1.46-2.14,2.77-2.98,3.93-.85,1.16-1.78,2.57-2.81,4.21-2.8-.33-5.27-.6-7.39-.86-.95-.05-1.85-.14-2.7-.26-.84-.12-1.63-.24-2.36-.35-.81-.09-1.57-.15-2.3-.18-2.41-.47-4.74-.46-6.99-.01-2.25.45-4.24,1.26-5.98,2.41-1.74,1.15-3.12,2.55-4.17,4.21-1.05,1.66-1.57,3.48-1.57,5.48,0,2.28.36,3.93,1.08,4.96.72,1.03,1.55,1.74,2.5,2.13,1.01.44,2.21.56,3.59.38-1.23.42-2.36.5-3.37.24-1.02-.26-1.92-.71-2.71-1.36-.8-.65-1.41-1.48-1.84-2.49-.43-1.02-.65-2.06-.65-3.12,0-1.99.34-4.13,1.03-6.43.68-2.3,1.8-4.53,3.35-6.7,1.55-2.17,3.61-4.18,6.18-6.01,2.57-1.83,5.75-3.29,9.54-4.31,0-4.36-.02-8.73-.03-13.09,0-1.86-.85-2.75-2.52-2.62-.51.03-1.02.07-1.53.1.51-.4,1.02-.81,1.52-1.21,1.67-1.31,2.51-2.9,2.5-4.77-.02-9.1-.04-18.2-.06-27.3,0-1.57-.59-2.58-1.75-3.04-1.56-.58-3.12-1.14-4.67-1.68-.51-.17-1.05-.09-1.62.26-.58.35-1.08.82-1.51,1.41-.25.39-.5.78-.75,1.17-.58.89-1.15,1.8-1.72,2.73-.58.93-1.15,1.87-1.72,2.82-1.01,1.77-2.04,3.76-3.12,5.98-.21.47-.43.98-.64,1.52-.21.54-.43,1.09-.64,1.63-.14.43-.29.9-.43,1.4-.14.5-.29,1.04-.43,1.62-.14.5-.25.99-.32,1.45-.07.46-.14.97-.21,1.5,0,.11,0,.21,0,.32,0,.04,0,.07,0,.11,0,.07,0,.14,0,.21,0,.11,0,.21,0,.32,0,.11,0,.21,0,.32,0,.07,0,.14,0,.21.04.02.07.03.11.05,0,.14,0,.29,0,.43,0,.29.03.48.11.59.11.37.21.75.32,1.12.14.21.22.36.21.43.07.07.14.14.21.21,0,.07.02.12.05.13.03.02.05.06.05.13.43.5,1,.82,1.72.97.72.22,1.47.18,2.26-.14.72-.13,1.55-.5,2.48-1.09.79-.45,1.53-.99,2.22-1.61.68-.62,1.32-1.29,1.89-2,1.08-1.4,1.91-2.75,2.49-4.06.14-.36.25-.67.32-.93.07-.26.18-.57.32-.93.22-.55.32-1.04.32-1.49.14-.44.22-.83.22-1.16,0-.33.03-.63.11-.88,0-.18,0-.37,0-.55,0-.07,0-.15,0-.22,0,.07,0,.15,0,.22,0,.18,0,.37,0,.55,0,.22-.02.51-.05.86-.04.35-.09.73-.16,1.13-.15.66-.25,1.19-.32,1.6-.15.29-.25.58-.32.88-.07.29-.18.58-.32.88-.29.73-.63,1.45-1.03,2.15-.4.71-.88,1.41-1.46,2.13-1.08,1.4-2.49,2.69-4.22,3.88-.86.56-1.69.92-2.48,1.09-.94.31-1.76.39-2.48.24-.36-.11-.72-.24-1.08-.38-.36-.14-.64-.38-.86-.7-.07-.03-.11-.07-.11-.11,0-.04-.04-.07-.11-.11-.04-.05-.07-.11-.11-.16-.11-.16-.22-.32-.32-.48-.07-.25-.14-.46-.21-.64-.07-.18-.14-.35-.21-.53,0-.35-.04-.58-.11-.69,0-.11,0-.21,0-.32,0-.07,0-.14,0-.21-.04-.02-.07-.03-.11-.05,0-.14,0-.28,0-.43,0-.11,0-.21,0-.32,0-.07,0-.14,0-.21,0-.04,0-.07,0-.11,0-.14,0-.28,0-.43,0-.5.04-.98.11-1.44.07-.46.18-.98.32-1.56.14-.57.29-1.11.43-1.61.14-.5.28-1.01.43-1.51.22-.61.43-1.17.64-1.68.22-.51.43-1.03.64-1.58.5-1.05,1-2.09,1.5-3.12.5-1.02,1.04-2.05,1.61-3.08.57-1.03,1.13-2.02,1.67-2.96.54-.94,1.09-1.86,1.67-2.75.57-.89,1.13-1.76,1.67-2.6.54-.84,1.1-1.63,1.67-2.39,2.01-3,3.78-5.47,5.3-7.4.72-.98,1.23-1.66,1.52-2.04.14-.15.29-.34.43-.57.04-.06.07-.11.11-.17.15.15.29.29.44.44,2.72,1.16,5.46,2.4,8.2,3.7,1.31-1.79,2.35-3.38,3.12-4.79.76-1.41,1.35-2.61,1.75-3.62.4-1,.75-2.07,1.04-3.22.44.47,1.07.71,1.88.7,4.89-.39,9.8-.64,14.74-.71,1.26-.22,2.41-.66,3.45-1.33.82-.5,1.6-1.21,2.34-2.16.74-.94,1.11-2.13,1.11-3.57.23,1.03.16,2.14-.21,3.33-.37,1.03-1.04,2.28-2,3.75-.96,1.47-2.52,3.08-4.67,4.85.02,6.8.05,13.61.07,20.41ZM273.75,140.57c-3.58.15-7.14.38-10.69.69.03,10.32.06,20.64.09,30.96.88-1.28,1.66-2.53,2.36-3.74.69-1.21,1.3-2.31,1.81-3.29.58-1.09,1.06-2.14,1.42-3.14.44.51,1.07.79,1.88.83,1.07-.02,2.14-.03,3.21-.03-.02-7.42-.05-14.85-.07-22.27ZM273.86,174.27c-3.58-.11-7.15-.14-10.71-.11.03,9.56.06,19.12.08,28.68,3.56.13,7.14.32,10.73.58-.03-9.72-.06-19.43-.1-29.15Z"/>
    <path class="cls-1" d="M312.68,190.25c0,.41-.41,1.17-1.24,2.27-.83,1.1-1.78,2.36-2.87,3.77-1.09,1.41-2.12,2.87-3.08,4.37-.97,1.5-1.61,2.9-1.9,4.2-2.22-1.74-4.44-3.45-6.65-5.11-.03-9-.06-18-.1-27,0-.89-.27-1.63-.79-2.24-.53-.6-1.2-.85-2.02-.75,0-.04,0-.08,0-.12,1.86-1.16,2.79-2.75,2.79-4.77-.02-6.01-.04-12.03-.07-18.04-.52.1-1.05.08-1.57-.06-.45-.08-.9-.2-1.35-.37-.45-.16-.82-.47-1.12-.92,1.96-3.93,3.93-7.87,5.9-11.82,1.95,1.49,3.63,2.46,5.02,2.89,1.39.43,2.54.59,3.44.47,1.05-.09,1.96-.46,2.71-1.1-.22.56-.49,1.06-.79,1.48-.22.4-.52.84-.9,1.33-.38.49-.75.91-1.12,1.28.03,7.25.05,14.49.08,21.74,0,.9.25,1.65.74,2.25.49.6,1.15.91,1.98.92-.83.48-1.48,1.17-1.97,2.09-.49.92-.73,1.82-.72,2.72.03,7.37.05,14.74.08,22.1.15.13.3.25.45.38.6.42,1.3.56,2.09.41.79-.15,1.48-.58,2.08-1.3.3-.36.6-.72.9-1.08ZM307.8,118.58c-2.04-1.52-4.07-3-6.11-4.44-2.02,2.95-4.03,5.91-6.04,8.86,2.03,1.4,4.05,2.83,6.09,4.31,2.02-2.91,4.04-5.83,6.06-8.73Z"/>
    <path class="cls-1" d="M354.63,183.04c0,.43-.42,1.16-1.25,2.19-.84,1.04-1.79,2.21-2.85,3.53-1.06,1.32-2.09,2.7-3.07,4.15-.99,1.44-1.63,2.83-1.93,4.14-2.29-2.1-4.57-4.17-6.85-6.19-.02-7.71-.04-15.43-.06-23.14-3.69-.93-7.37-1.78-11.05-2.55.02,7.38.04,14.76.07,22.14.19.13.38.26.57.4.61.47,1.29.66,2.05.57.76-.09,1.44-.49,2.04-1.19.3-.35.6-.7.91-1.04,0,.42-.42,1.17-1.25,2.24-.83,1.07-1.78,2.29-2.83,3.66-1.06,1.37-2.07,2.79-3.05,4.27-.98,1.48-1.62,2.88-1.92,4.19-2.27-1.91-4.55-3.79-6.82-5.62-.03-7.75-.05-15.5-.08-23.26,1.81-.6,3.39-1.6,4.75-2.99,1.36-1.39,2.56-2.67,3.62-3.82-2.05-.43-4.09-.83-6.13-1.21-.3,0-.6-.02-.91-.03-.68-.08-1.25-.02-1.7.18-.45.2-.92.55-1.41,1.04-.49.5-.84,1.32-1.07,2.45-.08-.97.03-1.91.33-2.82.22-.72.62-1.48,1.18-2.29.56-.81,1.41-1.48,2.54-2.02-.02-6.52-.04-13.04-.06-19.55-.53-.02-1.06-.12-1.59-.31-.45-.12-.91-.28-1.36-.49-.45-.2-.83-.55-1.14-1.04,1.99-3.89,3.98-7.78,5.97-11.67,1.97,1.69,3.64,2.86,5.01,3.47,1.37.61,2.54.89,3.53.82,1.06,0,2.01-.36,2.85-1.06-.23.56-.49,1.04-.79,1.45-.23.39-.53.82-.91,1.29-.38.47-.76.87-1.14,1.22,0,.04,0,.08,0,.13-.02,6.27-.04,12.53-.06,18.79,3.68.78,7.37,1.65,11.06,2.6-.02-6.75-.03-13.49-.05-20.24-.53-.06-1.07-.21-1.6-.44-.46-.16-.91-.36-1.37-.61-.46-.24-.84-.63-1.14-1.15,2.01-3.81,4.02-7.62,6.03-11.43,1.99,1.9,3.67,3.23,5.04,3.97,1.38.74,2.56,1.12,3.55,1.13,1.07.08,2.02-.19,2.86-.83-.23.55-.5,1.02-.8,1.41-.23.38-.53.79-.91,1.23-.38.45-.76.83-1.14,1.14-.03,6.47-.05,12.93-.08,19.4-.92.22-1.77.61-2.57,1.15-.8.55-1.54,1.16-2.23,1.82-.68.67-1.33,1.35-1.94,2.04-.61.7-1.18,1.3-1.71,1.82,2.06.54,4.11,1.11,6.17,1.7.31.08.61.17.92.25.61.17,1.18.17,1.72.02.46-.15.91-.45,1.37-.89.46-.45.84-1.25,1.14-2.4.08.93-.04,1.85-.34,2.75-.23.72-.63,1.48-1.2,2.28-.57.8-1.43,1.37-2.57,1.7.02,7.48.03,14.96.04,22.44.15.15.31.3.46.46.61.52,1.32.76,2.12.71.8-.05,1.5-.4,2.11-1.07.3-.33.61-.67.91-1Z"/>
    <path class="cls-1" d="M396.91,181.52c0,.44-.42,1.12-1.26,2.05-.84.94-1.8,2-2.87,3.2-1.07,1.2-2.1,2.47-3.1,3.81-.99,1.34-1.64,2.67-1.95,3.97-2.29-2.46-4.58-4.89-6.88-7.29,0-7.92,0-15.84,0-23.76-3.71-1.52-7.42-2.95-11.13-4.3,0,7.62.01,15.24.02,22.87.19.16.38.33.57.49.61.57,1.3.86,2.06.87.76,0,1.45-.3,2.06-.94.31-.32.61-.63.92-.95,0,.44-.42,1.14-1.26,2.13-.84.99-1.79,2.12-2.86,3.38-1.07,1.27-2.1,2.6-3.09,4-.99,1.4-1.64,2.76-1.94,4.07-2.29-2.28-4.58-4.53-6.87-6.74-.01-8.05-.02-16.1-.04-24.15,1.83-.36,3.44-1.15,4.81-2.39,1.37-1.24,2.59-2.37,3.67-3.41-2.07-.75-4.13-1.48-6.19-2.18-.31-.06-.61-.11-.92-.17-.69-.19-1.26-.21-1.72-.08-.46.14-.94.43-1.43.87-.5.44-.86,1.24-1.08,2.38-.08-1.02.03-1.98.34-2.88.23-.71.63-1.45,1.2-2.2.57-.75,1.43-1.32,2.58-1.7,0-6.76-.02-13.53-.03-20.29-.54-.11-1.07-.3-1.61-.58-.46-.2-.92-.44-1.38-.73-.46-.28-.84-.71-1.15-1.27,2.02-3.71,4.04-7.41,6.07-11.1,1.99,2.1,3.68,3.59,5.06,4.45,1.38.87,2.57,1.35,3.56,1.44,1.07.17,2.03-.02,2.87-.6-.23.54-.5.99-.8,1.36-.23.36-.54.75-.92,1.17-.38.42-.77.77-1.15,1.06,0,.04,0,.09,0,.13-.03,6.46-.07,12.92-.1,19.38,3.71,1.39,7.43,2.87,11.14,4.43,0-6.92,0-13.84,0-20.77-.54-.16-1.07-.4-1.61-.73-.46-.24-.92-.53-1.38-.86-.46-.33-.84-.79-1.15-1.38,2.03-3.58,4.06-7.14,6.09-10.69,1.99,2.29,3.68,3.95,5.06,4.94,1.38.99,2.57,1.59,3.57,1.77,1.07.27,2.03.15,2.88-.35-.23.52-.5.95-.81,1.3-.23.35-.54.71-.92,1.1-.38.39-.77.71-1.15.97-.04,6.59-.08,13.19-.12,19.78-.92.08-1.78.33-2.59.77-.8.44-1.55.94-2.24,1.51-.69.57-1.34,1.17-1.95,1.78-.61.62-1.19,1.15-1.72,1.59,2.07.88,4.13,1.78,6.2,2.71.31.13.61.27.92.4.61.27,1.19.36,1.72.28.46-.08.92-.31,1.38-.7.46-.38.84-1.14,1.15-2.27.07.96-.04,1.88-.35,2.74-.23.7-.63,1.41-1.21,2.14-.57.73-1.44,1.17-2.58,1.34,0,7.64,0,15.28,0,22.92.15.18.31.35.46.53.61.62,1.32.97,2.12,1.03.8.07,1.51-.2,2.12-.79.31-.3.61-.59.92-.89Z"/>
    <path class="cls-1" d="M435.59,156.52c.49.87,1.15,1.51,1.99,1.93.04.05.08.1.11.15-.84.02-1.52.4-2.06,1.14-.53.74-.8,1.59-.81,2.55-.02,7.94-.04,15.89-.06,23.83-2.89-.13-5.29.42-7.19,1.59-1.91,1.18-3.41,2.54-4.52,4.06-1.11,1.52-2.08,3.55-2.93,6.08-.27-.21-.53-.41-.8-.62-5.13-8.27-10.27-16.43-15.42-24.43-.31-.11-.61-.21-.92-.31-.69-.3-1.26-.42-1.72-.35-.46.07-.94.28-1.43.65-.5.37-.86,1.12-1.09,2.25-.08-1.05.04-2.01.35-2.87.23-.69.63-1.37,1.21-2.05.57-.67,1.43-1.11,2.58-1.31,0-3.37,0-6.74.01-10.11,0-2.19-.95-3.64-2.87-4.34.04-.04.08-.08.11-.13.84-.23,1.51-.72,2.01-1.48.5-.76.75-1.62.75-2.59,0-6.47.01-12.95.02-19.43-.54-.2-1.07-.49-1.61-.86-.46-.28-.92-.61-1.38-.97-.46-.37-.84-.86-1.15-1.48,2.03-3.43,4.07-6.84,6.1-10.23,1.99,2.48,3.67,4.28,5.05,5.4,1.38,1.12,2.56,1.81,3.56,2.08,1.07.36,2.03.33,2.87-.11-.23.5-.5.91-.81,1.23-.31.32-.65.66-1.03,1.01-.38.36-.77.65-1.15.88-.02,12.39-.04,24.77-.06,37.16,3.69,7.39,7.38,14.85,11.06,22.37.04-18.15.08-36.3.12-54.45-.53-.25-1.07-.58-1.6-1-.46-.32-.92-.69-1.37-1.09-.46-.41-.84-.93-1.14-1.58,2.03-3.26,4.06-6.49,6.1-9.69,1.98,2.65,3.65,4.6,5.02,5.84,1.37,1.23,2.55,2.03,3.54,2.38,1.06.45,2.02.5,2.86.14-.23.48-.5.87-.8,1.16-.31.29-.65.6-1.03.92-.38.32-.76.58-1.14.77-.02,7.72-.04,15.45-.06,23.17,0,.96.24,1.87.73,2.75Z"/>
    <path class="cls-1" d="M459.41,190.39c0,.43-.42,1.02-1.25,1.77-.83.75-1.8,1.6-2.9,2.57-1.1.96-2.14,2.01-3.13,3.14-.99,1.13-1.63,2.32-1.94,3.56-2.22-2.9-4.45-5.78-6.68-8.65.03-9.7.06-19.41.09-29.11,0-.96-.26-1.9-.79-2.84-.53-.93-1.21-1.57-2.05-1.91,0-.04,0-.09,0-.13,1.9-.24,2.85-1.43,2.86-3.61.02-6.48.04-12.97.06-19.45-.53-.2-1.06-.53-1.59-.99-.46-.36-.91-.75-1.37-1.19-.45-.44-.84-.99-1.14-1.67,2.02-3.09,4.05-6.15,6.07-9.17,1.97,2.79,3.65,4.85,5.05,6.14,1.4,1.3,2.55,2.15,3.46,2.56,1.06.53,1.97.69,2.72.45-.23.46-.5.82-.8,1.09-.23.29-.53.57-.91.87-.38.29-.76.52-1.14.68-.02,7.67-.05,15.34-.08,23,0,.95.24,1.88.73,2.78.49.9,1.15,1.58,1.98,2.05-.83.05-1.49.43-1.99,1.13-.49.7-.74,1.53-.75,2.49-.03,7.8-.05,15.6-.08,23.39.15.21.3.42.45.62.6.75,1.3,1.23,2.09,1.46.79.23,1.49.12,2.1-.34.3-.23.61-.46.91-.69ZM455.02,112.38c-2.03-2.89-4.07-5.76-6.11-8.61-2.06,1.84-4.11,3.71-6.17,5.61,2.05,2.8,4.09,5.62,6.13,8.46,2.05-1.85,4.11-3.67,6.16-5.46Z"/>
    <path class="cls-1" d="M480.9,196.41c0,.43-.42.98-1.24,1.66-.83.69-1.78,1.46-2.87,2.33-1.09.87-2.12,1.83-3.1,2.89-.98,1.05-1.62,2.18-1.93,3.38-2.2-3.01-4.41-6.01-6.62-9,.03-9.6.07-19.2.1-28.79,0-.95-.26-1.9-.78-2.87-.52-.96-1.2-1.65-2.03-2.05,0-.04,0-.09,0-.13,1.88-.09,2.83-1.2,2.84-3.35,0-2.84.02-5.68.03-8.52.04-12.35.09-24.7.13-37.06-.53-.34-1.05-.76-1.58-1.27-.45-.4-.9-.84-1.35-1.32-.45-.48-.83-1.07-1.13-1.76,2.01-2.85,4.02-5.67,6.02-8.45,1.95,2.97,3.61,5.19,5,6.66,1.38,1.47,2.52,2.45,3.42,2.95,1.05.64,1.95.84,2.69.6-.23.43-.49.76-.79.99-.23.26-.53.51-.9.76-.38.25-.75.43-1.13.56-.06,16.32-.12,32.64-.18,48.97,0,.94.24,1.87.72,2.8.48.92,1.14,1.65,1.96,2.17-.82-.01-1.48.31-1.97.97-.49.66-.74,1.46-.74,2.4-.03,7.69-.06,15.38-.08,23.07.15.22.3.43.45.65.6.78,1.29,1.3,2.07,1.58.78.28,1.48.22,2.08-.2.3-.21.6-.41.9-.61Z"/>
    <path class="cls-1" d="M502.18,203.73c0,.42-.41.93-1.23,1.55-.82.62-1.76,1.32-2.84,2.11-1.08.79-2.1,1.67-3.07,2.64-.97.97-1.61,2.04-1.91,3.2-2.18-3.09-4.37-6.18-6.55-9.26.03-9.44.07-18.88.1-28.31,0-.93-.26-1.89-.77-2.88-.52-.99-1.19-1.71-2.01-2.16,0-.04,0-.08,0-.13,1.86.05,2.8-.97,2.81-3.08.01-2.79.02-5.59.03-8.38.04-12.15.09-24.29.13-36.44-.52-.38-1.04-.84-1.56-1.38-.45-.43-.89-.9-1.34-1.42-.45-.51-.82-1.13-1.11-1.84,1.99-2.63,3.97-5.23,5.95-7.78,1.92,3.09,3.57,5.43,4.93,6.99,1.37,1.56,2.49,2.63,3.38,3.19,1.03.71,1.92.99,2.66.83-.22.4-.48.7-.78.9-.22.23-.52.46-.89.67-.37.21-.74.36-1.11.45-.05,16-.11,32.01-.16,48.01,0,.92.23,1.85.71,2.79.48.94,1.12,1.7,1.94,2.27-.81-.07-1.46.2-1.95.81-.48.61-.73,1.38-.73,2.3-.03,7.54-.05,15.08-.08,22.62.15.22.3.44.44.66.59.8,1.27,1.36,2.05,1.68.78.33,1.46.3,2.05-.06.3-.18.59-.36.89-.55Z"/>
    <path class="cls-1" d="M526.71,206.4c2.25,1,3.96,1.24,5.12.69,1.16-.55,2.19-1.26,3.1-2.15.9-.89,1.82-1.66,2.76-2.31.94-.65,2.31-.54,4.1.36-1.51-.36-2.45.11-2.81,1.4-.36,1.29-.54,3.08-.54,5.38,0,1.27,0,2.53,0,3.8,0,1.62,0,3.24,0,4.87-2.74-.94-5.02-1.15-6.84-.63-1.81.52-3.25,1.33-4.31,2.41-1.06,1.08-1.99,2.67-2.8,4.77-.25-.27-.51-.53-.76-.8-4.92-4.12-9.86-8.23-14.82-12.28-.29-.2-.59-.39-.88-.59-.66-.5-1.21-.79-1.66-.88-.44-.08-.9-.03-1.38.16-.48.19-.83.79-1.06,1.79-.07-1.02.04-1.9.34-2.62.22-.58.61-1.1,1.17-1.56.55-.45,1.39-.59,2.49-.42.02-7.9.05-15.8.07-23.7,0-2.07-.91-3.78-2.75-5.12.04-.03.07-.05.11-.08.81.09,1.45-.14,1.94-.69.48-.54.72-1.27.72-2.18.02-6.08.04-12.16.05-18.24,2.79.92,5.1,1.15,6.93.67,1.83-.49,3.27-1.23,4.33-2.26,1.06-1.03,1.99-2.55,2.79-4.58.25.29.51.59.76.88,4.89,4.63,9.76,9.31,14.6,14.03.29.24.57.47.86.71.64.59,1.18.99,1.61,1.19.43.2.88.23,1.34.1.46-.13.8-.65,1.02-1.55.07.98-.04,1.79-.32,2.41-.21.51-.59.95-1.13,1.32-.54.37-1.34.34-2.42-.08,0,1.35,0,2.69,0,4.04,0,1.35.61,2.62,1.83,3.83-2.37-1.27-4.42-1.5-6.15-.68-1.73.82-3.4,1.92-4.99,3.31-1.6,1.38-3.25,2.62-4.96,3.72-1.71,1.1-3.77,1.27-6.18.52-.02,7.35-.04,14.7-.05,22.05,3.54,2.99,7.07,6,10.6,9.02,0-1,0-2.01,0-3.01,0-1.05,0-2.09,0-3.14,0-.08,0-.16,0-.24,0-1.45-.61-2.65-1.85-3.6ZM518.06,159.85c-.02,8-.04,16-.06,24.01,1.17.2,2.37.06,3.61-.43,1.24-.48,2.39-1.16,3.44-2.03,1.05-.87,1.91-1.91,2.56-3.12.65-1.21.98-2.53.98-3.98,0-1.53,0-3.06,0-4.58-3.51-3.32-7.02-6.61-10.55-9.87Z"/>
  </g>
</svg>