<?xml version="1.0" encoding="UTF-8"?>
<svg id="Layer_1" data-name="Layer 1" xmlns="http://www.w3.org/2000/svg" viewBox="0 0 775.27 789.54">
  <defs>
    <style>
      .cls-1 {
        fill: #0e3c38;
      }
    </style>
  </defs>
  <path class="cls-1" d="M534.49,377.3l-41.02,192.07c-2.05,11.06-3.69,17.41-5.73,26.42-2.12-9.01-3.69-14.27-6.35-26.42l-33.04-144.02c77.88-23.55,127.09-92.15,127.09-174.19,0-100.68-75.7-181.7-188.05-181.7s-187.57,81.02-187.57,181.7c0,82.11,48.94,150.78,126.96,174.26l-33.45,143.95c-2.66,12.15-4.23,17.41-6.28,26.42-1.64-9.01-3.69-16.93-5.26-26.42l-36.79-192.07h-102.45l86.14,342.79h317.87l86.14-342.79h-98.22ZM306.85,251.16c0-51.12,36.18-88.12,80.54-88.12,47.51,0,81.02,37,81.02,88.12s-33.51,89.28-81.02,89.28-80.54-37-80.54-89.28ZM368.29,579.27l11.19-44.84c3.14-12.15,5.26-22.73,7.92-34.4,2.59,11.67,4.71,22.25,7.85,34.4l11.19,44.84h-38.16Z"/>
</svg>