<?xml version="1.0" encoding="UTF-8"?>
<svg id="Layer_1" data-name="Layer 1" xmlns="http://www.w3.org/2000/svg" viewBox="0 0 1080 540">
  <defs>
    <style>
      .cls-1 {
        fill: #0e3c38;
      }
    </style>
  </defs>
  <path class="cls-1" d="M349.39,245.37c-5.23,3.23-10.45,6.39-15.67,9.49,5.19,2.65,10.39,5.32,15.59,8,1.25.57,2.43.75,3.54.52.84-.24,1.64-.76,2.4-1.57.77-.8,1.23-2.37,1.38-4.7.54,1.92.68,3.81.39,5.66-.29,1.7-.95,3.41-2.01,5.12-1.05,1.71-2.97,3.23-5.75,4.53-.08,17.02-.16,34.05-.24,51.07-.01,3.11,1.01,5.74,3.09,7.9-2.64-.52-5.28-.42-7.91.27-2.64.7-5.18,1.75-7.61,3.14-2.43,1.39-4.73,2.98-6.88,4.76-2.16,1.78-4.03,3.4-5.63,4.86-1.6,1.46-3.37,3.3-5.31,5.51-5.24-3.41-9.86-6.47-13.85-9.17-1.79-1.09-3.48-2.2-5.06-3.32-1.58-1.12-3.06-2.19-4.44-3.19-1.52-1.03-2.96-1.98-4.33-2.84-4.54-3.53-8.94-6.1-13.2-7.75-4.26-1.65-8.04-2.35-11.34-2.12-3.3.23-5.94,1.35-7.93,3.35-1.99,2.01-2.98,4.95-2.98,8.86,0,4.47.68,8.13,2.05,11,1.37,2.87,2.94,5.25,4.72,7.12,1.91,2.05,4.17,3.7,6.77,4.94-2.33-.6-4.45-1.76-6.36-3.45-1.92-1.7-3.62-3.66-5.13-5.87-1.51-2.21-2.67-4.57-3.49-7.08-.82-2.51-1.23-4.8-1.23-6.89,0-3.9.65-7.67,1.95-11.35,1.3-3.68,3.43-6.72,6.38-9.14,2.95-2.42,6.87-3.96,11.76-4.63,4.88-.66,10.91.04,18.08,2.15.03-8.57.05-17.13.08-25.7.01-3.66-1.57-6.29-4.74-7.88-.97-.49-1.93-.99-2.9-1.48.97-.23,1.94-.47,2.9-.7,3.18-.75,4.78-2.96,4.79-6.63.05-17.87.1-35.73.16-53.6,0-3.08-1.1-5.69-3.31-7.84-2.98-2.84-5.95-5.65-8.93-8.43-.97-.9-2.01-1.33-3.12-1.3-1.11.03-2.08.39-2.92,1.07-.49.48-.97.96-1.46,1.44-1.11,1.1-2.22,2.23-3.33,3.38-1.11,1.16-2.22,2.34-3.33,3.56-1.95,2.31-3.95,5.01-6.03,8.1-.42.68-.83,1.42-1.25,2.23-.42.81-.83,1.62-1.25,2.43-.28.68-.55,1.43-.83,2.24-.28.82-.55,1.71-.83,2.66-.28.81-.49,1.63-.62,2.46-.14.82-.28,1.72-.42,2.68,0,.21,0,.42,0,.63,0,.07,0,.14,0,.21,0,.14,0,.28,0,.42,0,.21,0,.42,0,.63,0,.21,0,.42,0,.63,0,.14,0,.28,0,.42.07.08.14.15.21.23,0,.28,0,.56,0,.84,0,.56.07.98.21,1.27.21.86.41,1.71.62,2.57.28.59.41.95.41,1.09.14.22.28.45.41.67,0,.14.03.25.1.33.07.08.1.19.1.32.83,1.48,1.93,2.79,3.31,3.92,1.38,1.27,2.83,2.06,4.35,2.37,1.38.57,2.97.82,4.77.72,1.52.02,2.94-.19,4.25-.63,1.31-.44,2.52-1.03,3.63-1.78,2.08-1.52,3.67-3.24,4.78-5.17.28-.55.49-1.04.63-1.46.14-.42.35-.91.63-1.47.42-.83.63-1.69.63-2.56.28-.7.42-1.38.42-2.03,0-.65.07-1.19.21-1.61,0-.36,0-.73,0-1.09,0-.15,0-.29,0-.44,0,.15,0,.29,0,.44,0,.36,0,.73,0,1.09,0,.44-.04.98-.11,1.62-.07.65-.18,1.33-.32,2.04-.28,1.14-.49,2.06-.63,2.77-.28.41-.49.86-.63,1.36-.14.5-.35.95-.63,1.36-.56,1.11-1.22,2.13-1.98,3.07-.76.94-1.7,1.78-2.81,2.54-2.08,1.52-4.78,2.46-8.09,2.81-1.66.11-3.25-.14-4.77-.73-1.8-.48-3.39-1.29-4.76-2.42-.69-.63-1.38-1.31-2.07-2.01-.69-.7-1.24-1.49-1.66-2.38-.14-.15-.21-.26-.21-.33,0-.07-.07-.18-.21-.34-.07-.15-.14-.29-.21-.44-.21-.44-.41-.88-.62-1.32-.14-.57-.28-1.07-.41-1.5-.14-.43-.28-.86-.41-1.29,0-.69-.07-1.19-.21-1.48v-1.04c-.07-.08-.14-.15-.21-.23v-2.92c0-.97.07-1.87.21-2.69.14-.82.34-1.71.62-2.66.28-.95.55-1.84.83-2.65.28-.81.55-1.63.83-2.45.42-.94.83-1.79,1.25-2.53.42-.74.83-1.52,1.25-2.33.97-1.48,1.94-2.93,2.91-4.35.97-1.42,2.01-2.81,3.12-4.17,1.11-1.35,2.19-2.65,3.23-3.88,1.04-1.23,2.12-2.39,3.23-3.49,1.11-1.1,2.19-2.16,3.23-3.2,1.04-1.04,2.12-1.97,3.23-2.8,3.89-3.62,7.31-6.52,10.23-8.65,1.39-1.14,2.37-1.93,2.92-2.36.28-.14.55-.35.84-.65.07-.07.14-.14.21-.22.28.44.55.89.83,1.33,5.2,5.21,10.39,10.5,15.58,15.89,2.51-2.16,4.5-4.24,5.96-6.23,1.47-1.99,2.58-3.78,3.36-5.34.77-1.57,1.44-3.33,2-5.28.83,1.37,2,2.44,3.53,3.22,9.23,4,18.45,8.11,27.68,12.29,2.36.68,4.51.81,6.46.38,1.53-.28,2.99-1.03,4.39-2.25,1.39-1.23,2.1-3.26,2.11-6.09.41,2.21.26,4.33-.45,6.36-.71,1.72-1.97,3.61-3.78,5.68-1.82,2.07-4.75,3.9-8.78,5.48-.06,13.37-.13,26.74-.19,40.11ZM330.59,209.44c-6.72-3.09-13.45-6.15-20.17-9.15-.08,20.28-.15,40.55-.23,60.83,1.67-1.63,3.16-3.29,4.49-4.97,1.32-1.68,2.47-3.24,3.45-4.66,1.12-1.56,2.02-3.15,2.72-4.76.83,1.43,2,2.59,3.52,3.47,2.01,1,4.02,2,6.02,3.01.06-14.59.13-29.18.19-43.77ZM330.3,275.67c-6.71-3.6-13.42-7.18-20.13-10.73-.07,18.78-.14,37.56-.21,56.34,6.69,3.89,13.39,7.78,20.09,11.68.08-19.1.17-38.2.25-57.29Z"/>
  <path class="cls-1" d="M402.18,338.11c0,.81-.78,2.02-2.32,3.64-1.54,1.62-3.33,3.44-5.36,5.46-2.03,2.03-3.96,4.16-5.78,6.43-1.82,2.26-3.02,4.55-3.59,6.87-4.09-5.01-8.17-10.01-12.25-14.98.08-17.67.17-35.34.25-53.01,0-1.74-.47-3.41-1.44-5-.97-1.59-2.21-2.61-3.74-3.06,0-.08,0-.16,0-.24,3.48-.79,5.23-3.19,5.25-7.15.06-11.81.11-23.61.17-35.42-.97-.21-1.95-.66-2.91-1.35-.83-.52-1.66-1.12-2.49-1.79-.83-.67-1.52-1.58-2.07-2.71,3.71-6.11,7.43-12.28,11.14-18.51,3.59,4.42,6.67,7.58,9.24,9.43,2.56,1.86,4.68,2.99,6.35,3.38,1.94.56,3.62.47,5.01-.29-.42.95-.91,1.74-1.47,2.36-.42.63-.98,1.29-1.68,1.98-.7.69-1.4,1.27-2.1,1.72-.07,14.21-.13,28.42-.2,42.63,0,1.77.43,3.4,1.33,4.92.9,1.51,2.11,2.57,3.64,3.17-1.54.37-2.76,1.29-3.67,2.74-.91,1.46-1.37,3.07-1.38,4.83-.07,14.45-.13,28.9-.2,43.36.28.35.55.7.83,1.06,1.11,1.25,2.4,1.99,3.86,2.23,1.46.24,2.75-.15,3.87-1.16.56-.51,1.12-1.02,1.68-1.52ZM394.27,194.46c-3.74-4.4-7.47-8.78-11.2-13.12-3.78,4.27-7.55,8.51-11.33,12.71,3.73,4.35,7.47,8.72,11.2,13.13,3.78-4.21,7.55-8.45,11.33-12.73Z"/>
  <path class="cls-1" d="M479.5,343.74c0,.84-.78,2.14-2.32,3.9-1.55,1.77-3.3,3.76-5.26,5.99-1.97,2.23-3.86,4.58-5.69,7.05-1.83,2.47-3.03,4.93-3.59,7.38-4.19-4.92-8.37-9.85-12.55-14.78.05-15.05.1-30.11.15-45.16-6.76-3.42-13.52-6.86-20.27-10.3-.06,14.43-.11,28.87-.17,43.3.35.36.7.71,1.04,1.07,1.11,1.24,2.37,1.96,3.76,2.15,1.39.19,2.65-.24,3.78-1.31.56-.53,1.12-1.07,1.68-1.6,0,.83-.78,2.09-2.32,3.78-1.55,1.7-3.3,3.61-5.26,5.75-1.97,2.14-3.86,4.39-5.68,6.76-1.83,2.37-3.02,4.75-3.59,7.15-4.17-4.99-8.34-9.97-12.5-14.94.07-15.19.13-30.37.2-45.56,3.35-.07,6.28-1.08,8.8-3.03,2.52-1.95,4.76-3.77,6.72-5.45-3.76-1.95-7.52-3.91-11.27-5.86-.56-.2-1.11-.4-1.67-.6-1.25-.57-2.3-.8-3.13-.7-.84.11-1.71.49-2.62,1.16-.91.67-1.58,2.04-2,4.11-.13-1.95.09-3.72.65-5.3.42-1.27,1.16-2.51,2.21-3.74,1.05-1.23,2.62-2.02,4.71-2.38.05-12.77.11-25.53.16-38.3-.97-.37-1.95-.89-2.92-1.58-.83-.52-1.67-1.12-2.5-1.81-.83-.68-1.53-1.6-2.08-2.76,3.72-6.33,7.43-12.7,11.15-19.12,3.6,4.5,6.65,7.74,9.15,9.69,2.5,1.96,4.65,3.13,6.46,3.51,1.95.55,3.69.35,5.23-.59-.42.98-.91,1.79-1.47,2.43-.42.65-.98,1.33-1.68,2.05-.7.72-1.4,1.31-2.1,1.78,0,.08,0,.16,0,.25-.12,12.23-.23,24.46-.35,36.69,6.75,3.45,13.5,6.9,20.26,10.34.04-13.16.09-26.33.13-39.49-.98-.36-1.95-.88-2.92-1.57-.83-.52-1.67-1.12-2.5-1.81-.83-.68-1.53-1.61-2.08-2.79,3.72-6.5,7.43-13.03,11.14-19.59,3.61,4.54,6.66,7.8,9.17,9.76,2.5,1.96,4.66,3.13,6.47,3.49,1.95.54,3.69.32,5.23-.66-.42.99-.91,1.82-1.47,2.48-.42.66-.98,1.36-1.68,2.1-.7.74-1.4,1.35-2.1,1.83-.1,12.58-.21,25.16-.31,37.73-1.67.12-3.25.56-4.71,1.35-1.47.78-2.83,1.69-4.09,2.73-1.26,1.04-2.45,2.11-3.57,3.23-1.12,1.12-2.17,2.07-3.15,2.86,3.76,1.9,7.53,3.79,11.29,5.68.56.27,1.12.54,1.67.81,1.12.54,2.16.75,3.14.61.84-.13,1.68-.57,2.52-1.29.84-.72,1.54-2.16,2.11-4.31.13,1.84-.08,3.59-.64,5.23-.42,1.32-1.16,2.67-2.21,4.05-1.05,1.38-2.63,2.2-4.72,2.45-.04,14.57-.08,29.14-.12,43.71.28.35.56.7.84,1.04,1.11,1.22,2.41,1.92,3.88,2.07,1.47.16,2.76-.32,3.89-1.44.56-.56,1.12-1.12,1.68-1.68Z"/>
  <path class="cls-1" d="M557,344.97c0,.84-.77,2.2-2.31,4.06-1.54,1.87-3.29,3.99-5.25,6.36-1.96,2.37-3.85,4.86-5.67,7.47-1.82,2.61-3.02,5.18-3.57,7.7-4.21-4.71-8.41-9.44-12.61-14.19,0-15.31.02-30.61.02-45.92-6.78-3.16-13.56-6.36-20.33-9.59-.02,14.77-.04,29.54-.06,44.32.35.34.7.69,1.05,1.03,1.12,1.2,2.38,1.86,3.78,1.97,1.4.12,2.66-.41,3.78-1.56.56-.58,1.12-1.16,1.68-1.74,0,.84-.77,2.17-2.31,3.99-1.55,1.82-3.3,3.89-5.26,6.19-1.97,2.31-3.86,4.73-5.68,7.28-1.83,2.55-3.02,5.07-3.58,7.56-4.2-4.83-8.39-9.68-12.58-14.53.03-15.64.06-31.29.1-46.93,3.35-.23,6.29-1.41,8.81-3.53,2.52-2.11,4.76-4.08,6.72-5.89-3.77-1.84-7.54-3.68-11.31-5.53-.56-.18-1.12-.36-1.67-.54-1.26-.53-2.3-.73-3.14-.59-.84.15-1.71.58-2.62,1.31-.91.73-1.58,2.17-2,4.33-.14-2.01.08-3.84.64-5.5.42-1.32,1.16-2.64,2.21-3.95,1.05-1.31,2.62-2.19,4.72-2.64.03-13.14.05-26.28.08-39.42-.98-.35-1.95-.87-2.93-1.55-.84-.52-1.67-1.11-2.51-1.8-.84-.68-1.53-1.61-2.09-2.79,3.71-6.62,7.42-13.27,11.12-19.93,3.61,4.56,6.68,7.82,9.18,9.77,2.51,1.95,4.66,3.11,6.48,3.46,1.95.52,3.69.28,5.23-.72-.42,1.01-.91,1.84-1.47,2.51-.42.67-.98,1.38-1.68,2.13-.7.75-1.4,1.37-2.09,1.87,0,.08,0,.17,0,.25-.08,12.51-.17,25.02-.26,37.53,6.77,3.28,13.54,6.54,20.32,9.77,0-13.37.01-26.74.02-40.12-.98-.34-1.95-.85-2.93-1.52-.84-.51-1.67-1.1-2.51-1.78-.84-.67-1.54-1.6-2.09-2.78,3.7-6.71,7.4-13.42,11.09-20.15,3.62,4.55,6.69,7.79,9.2,9.72,2.51,1.93,4.67,3.07,6.48,3.4,1.95.5,3.69.24,5.23-.77-.42,1.01-.91,1.86-1.46,2.53-.42.68-.98,1.39-1.67,2.15-.7.76-1.4,1.39-2.09,1.9-.07,12.7-.13,25.4-.2,38.1-1.68.18-3.25.69-4.71,1.53-1.47.85-2.83,1.81-4.09,2.91-1.26,1.1-2.45,2.23-3.56,3.4-1.12,1.18-2.17,2.18-3.14,3.02,3.77,1.78,7.55,3.55,11.32,5.3.56.25,1.12.5,1.68.75,1.12.5,2.17.67,3.15.49.84-.17,1.68-.64,2.52-1.4.84-.76,1.54-2.24,2.09-4.43.14,1.85-.07,3.62-.63,5.3-.42,1.35-1.15,2.74-2.2,4.18-1.05,1.44-2.62,2.33-4.72,2.67,0,14.72,0,29.44.01,44.16.28.34.56.67.84,1.01,1.12,1.17,2.42,1.79,3.89,1.86,1.47.07,2.76-.49,3.89-1.68.56-.59,1.12-1.19,1.68-1.79Z"/>
  <path class="cls-1" d="M627.66,287.37c.91,1.45,2.14,2.39,3.67,2.81.07.08.14.16.21.24-1.54.41-2.79,1.41-3.76,3.03-.97,1.62-1.46,3.34-1.45,5.16.05,15.07.1,30.15.15,45.22-5.31,1-9.71,2.96-13.2,5.9-3.49,2.94-6.25,6.04-8.27,9.32-2.02,3.27-3.8,7.45-5.33,12.54-.49-.31-.98-.62-1.47-.93-9.49-14.24-18.97-28.69-28.43-43.28-.56-.16-1.12-.31-1.68-.47-1.26-.48-2.31-.63-3.15-.45-.84.18-1.71.66-2.62,1.43-.91.77-1.57,2.25-1.99,4.44-.14-2.02.07-3.87.63-5.56.42-1.35,1.15-2.7,2.2-4.06,1.05-1.36,2.62-2.31,4.72-2.85,0-6.47-.01-12.93-.02-19.4,0-4.2-1.76-6.86-5.25-7.99.07-.08.14-.17.21-.25,1.54-.52,2.76-1.55,3.67-3.07.9-1.52,1.36-3.21,1.36-5.06-.01-12.43-.03-24.86-.04-37.29-.98-.33-1.96-.82-2.93-1.49-.84-.5-1.67-1.08-2.51-1.75-.84-.66-1.54-1.58-2.1-2.76,3.69-6.75,7.38-13.49,11.06-20.23,3.63,4.51,6.7,7.71,9.21,9.61,2.51,1.9,4.67,3.01,6.49,3.32,1.95.48,3.69.2,5.23-.82-.42,1.01-.9,1.86-1.46,2.53-.56.68-1.18,1.4-1.88,2.16-.7.76-1.39,1.4-2.09,1.91.04,23.7.09,47.39.13,71.09,6.81,13.29,13.62,26.49,20.44,39.56-.09-34.58-.18-69.16-.27-103.75-.98-.31-1.96-.79-2.93-1.44-.84-.48-1.68-1.05-2.51-1.7-.84-.65-1.54-1.55-2.1-2.72,3.68-6.75,7.36-13.48,11.03-20.2,3.63,4.44,6.71,7.58,9.22,9.44,2.51,1.86,4.68,2.93,6.49,3.21,1.95.45,3.69.16,5.22-.87-.41,1-.9,1.84-1.45,2.52-.56.68-1.18,1.39-1.88,2.16-.7.76-1.39,1.4-2.08,1.92.05,14.66.09,29.32.14,43.98,0,1.82.46,3.46,1.38,4.91Z"/>
  <path class="cls-1" d="M671.92,338.69c0,.81-.76,2.18-2.28,4.12-1.53,1.94-3.3,4.14-5.31,6.62-2.01,2.48-3.93,5.06-5.73,7.77-1.81,2.7-2.98,5.31-3.53,7.82-4.14-4.18-8.28-8.42-12.42-12.69-.07-18.35-.14-36.7-.2-55.05,0-1.81-.5-3.47-1.48-4.98-.98-1.51-2.24-2.39-3.78-2.65,0-.08,0-.16,0-.25,3.48-1.33,5.22-4.05,5.2-8.17-.05-12.26-.09-24.52-.14-36.78-.98-.13-1.95-.51-2.93-1.14-.84-.47-1.68-1.02-2.51-1.65-.84-.63-1.54-1.52-2.1-2.66,3.67-6.71,7.34-13.39,11-20.05,3.64,4.35,6.75,7.38,9.33,9.1,2.58,1.73,4.71,2.72,6.38,2.99,1.95.43,3.62.21,5.01-.66-.41.99-.9,1.82-1.45,2.49-.42.67-.97,1.38-1.66,2.13-.69.76-1.39,1.39-2.08,1.91.06,14.43.12,28.86.18,43.3,0,1.8.47,3.4,1.38,4.81.91,1.41,2.13,2.31,3.67,2.7-1.53.59-2.75,1.68-3.65,3.29-.9,1.61-1.35,3.31-1.34,5.1.06,14.68.12,29.35.18,44.03.28.3.56.6.84.9,1.12,1.04,2.41,1.53,3.88,1.47,1.46-.05,2.75-.71,3.86-1.95.56-.62,1.11-1.24,1.67-1.87ZM662.74,194.82c-3.77-4.35-7.55-8.72-11.32-13.12-3.74,4.45-7.48,8.92-11.22,13.41,3.77,4.4,7.55,8.78,11.32,13.14,3.74-4.5,7.48-8.97,11.22-13.42Z"/>
  <path class="cls-1" d="M711.81,334.23c0,.79-.76,2.15-2.27,4.08-1.52,1.94-3.29,4.15-5.29,6.63-2.01,2.48-3.91,5.07-5.71,7.78-1.8,2.7-2.97,5.29-3.51,7.76-4.13-3.94-8.26-7.94-12.39-11.99-.08-17.97-.16-35.93-.24-53.9,0-1.77-.51-3.38-1.49-4.85-.98-1.46-2.24-2.3-3.77-2.51,0-.08,0-.16,0-.24,3.48-1.38,5.21-4.08,5.19-8.11-.02-5.32-.05-10.64-.07-15.95-.1-23.12-.21-46.25-.31-69.37-.98-.31-1.95-.78-2.93-1.41-.84-.47-1.67-1.02-2.51-1.66-.84-.63-1.54-1.52-2.1-2.64,3.66-6.52,7.31-12.99,10.97-19.42,3.63,4.34,6.74,7.41,9.33,9.23,2.58,1.82,4.71,2.88,6.38,3.18,1.95.46,3.62.2,5-.76-.41.95-.9,1.75-1.45,2.39-.41.64-.97,1.32-1.66,2.04-.69.72-1.39,1.33-2.08,1.81.14,30.39.29,60.78.43,91.17,0,1.75.47,3.31,1.38,4.66.91,1.36,2.13,2.21,3.67,2.55-1.53.61-2.74,1.7-3.64,3.29-.9,1.59-1.34,3.26-1.33,5.01.07,14.32.14,28.64.2,42.96.28.29.56.57.84.85,1.12.98,2.41,1.42,3.87,1.31,1.46-.1,2.74-.78,3.85-2.03.55-.62,1.11-1.25,1.66-1.87Z"/>
  <path class="cls-1" d="M751.56,328.59c0,.77-.76,2.1-2.27,4.03-1.52,1.93-3.27,4.12-5.27,6.59-2,2.48-3.9,5.05-5.69,7.74-1.79,2.68-2.96,5.24-3.5,7.66-4.11-3.66-8.22-7.4-12.34-11.19-.08-17.46-.17-34.92-.25-52.38,0-1.72-.51-3.28-1.48-4.67-.98-1.39-2.23-2.18-3.76-2.36,0-.08,0-.16,0-.24,3.46-1.42,5.19-4.09,5.17-8-.02-5.17-.05-10.33-.07-15.5-.11-22.47-.21-44.94-.32-67.41-.98-.29-1.95-.74-2.93-1.35-.84-.46-1.67-.99-2.51-1.61-.84-.61-1.54-1.47-2.1-2.56,3.65-6.36,7.31-12.66,10.97-18.9,3.63,4.22,6.74,7.19,9.32,8.94,2.58,1.76,4.7,2.78,6.37,3.07,1.95.44,3.61.19,5-.75-.41.92-.9,1.7-1.45,2.32-.41.62-.97,1.28-1.66,1.98-.7.7-1.39,1.29-2.08,1.76.13,29.42.27,58.84.4,88.26,0,1.7.46,3.19,1.37,4.48.91,1.29,2.12,2.09,3.65,2.38-1.53.62-2.74,1.71-3.63,3.27-.9,1.56-1.34,3.19-1.33,4.88.06,13.86.13,27.72.19,41.59.28.27.56.53.83.8,1.11.91,2.4,1.29,3.85,1.14,1.45-.15,2.73-.85,3.84-2.09.55-.62,1.1-1.24,1.65-1.86Z"/>
  <path class="cls-1" d="M797.71,307.47c4.27-.75,7.5-2.32,9.7-4.64,2.2-2.33,4.15-4.81,5.87-7.45,1.72-2.64,3.47-5.1,5.26-7.37,1.78-2.27,4.4-3.69,7.84-4.27-2.89,1.19-4.68,3.13-5.36,5.85-.69,2.72-1.03,6.12-1.02,10.19,0,2.25,0,4.5,0,6.75,0,2.88,0,5.76,0,8.65-5.22,1.65-9.54,3.98-12.97,7.05-3.43,3.06-6.14,6.18-8.13,9.34-1.99,3.16-3.73,7.09-5.24,11.79-.48-.19-.96-.37-1.45-.56-9.3-1.8-18.62-3.84-27.96-6.09-.55-.05-1.11-.11-1.66-.16-1.25-.23-2.28-.2-3.11.09-.83.3-1.69.86-2.59,1.7-.9.84-1.55,2.28-1.96,4.33-.15-1.8.05-3.51.6-5.12.41-1.28,1.13-2.62,2.16-4.01,1.03-1.39,2.59-2.48,4.66-3.28-.06-14.41-.12-28.82-.18-43.23-.02-3.77-1.76-5.97-5.22-6.65.07-.08.14-.17.21-.25,1.52-.63,2.73-1.67,3.62-3.13.89-1.46,1.34-3.02,1.33-4.68-.04-11.09-.09-22.18-.14-33.27,5.27-.99,9.63-2.86,13.09-5.57,3.46-2.71,6.19-5.52,8.19-8.46,2-2.93,3.75-6.64,5.27-11.12.49.27.97.53,1.46.8,9.37,3.28,18.73,6.39,28.08,9.33.55.1,1.11.2,1.66.29,1.24.32,2.28.42,3.11.28.83-.14,1.69-.59,2.59-1.36.9-.77,1.55-2.07,1.97-3.91.14,1.66-.07,3.21-.62,4.64-.41,1.15-1.14,2.36-2.18,3.63-1.04,1.28-2.59,2.15-4.67,2.61,0,2.39,0,4.78,0,7.17,0,2.39,1.17,3.96,3.53,4.69-4.56.48-8.49,2.4-11.81,5.81-3.31,3.42-6.49,7.24-9.52,11.49-3.03,4.25-6.17,8.29-9.4,12.13-3.24,3.84-7.13,6.37-11.7,7.55.04,13.3.09,26.6.13,39.9,6.7,1.57,13.39,3.02,20.07,4.35,0-1.8,0-3.6-.01-5.41,0-1.87,0-3.75-.01-5.62,0-.14,0-.29,0-.43,0-2.59-1.18-4.04-3.52-4.35ZM780.9,232.93c.05,14.48.1,28.97.14,43.45,2.21-.86,4.48-2.41,6.83-4.61,2.34-2.19,4.51-4.65,6.51-7.36,2-2.71,3.62-5.51,4.85-8.39,1.24-2.88,1.85-5.62,1.85-8.21,0-2.74-.01-5.48-.02-8.22-6.72-2.13-13.44-4.35-20.17-6.65Z"/>
</svg>